<?xml version="1.0" standalone="no"?><svg xmlns="http://www.w3.org/2000/svg" viewBox="0 0 1440 320"><path fill="#E5E5E5" fill-opacity="0.13" d="M0,224L40,213.3C80,203,160,181,240,192C320,203,400,245,480,234.7C560,224,640,160,720,138.7C800,117,880,139,960,149.3C1040,160,1120,160,1200,176C1280,192,1360,224,1400,240L1440,256L1440,320L1400,320C1360,320,1280,320,1200,320C1120,320,1040,320,960,320C880,320,800,320,720,320C640,320,560,320,480,320C400,320,320,320,240,320C160,320,80,320,40,320L0,320Z"></path></svg>